<svg xmlns="http://www.w3.org/2000/svg" viewBox="0 0 1600 900" role="img" aria-label="Carved wooden panel and artisan wood grain">
  <defs>
    <linearGradient id="bg" x1="0" y1="0" x2="1" y2="0.85">
      <stop offset="0" stop-color="#1d120c"/>
      <stop offset="0.42" stop-color="#5a341c"/>
      <stop offset="1" stop-color="#c58a4d"/>
    </linearGradient>
    <pattern id="grain" width="180" height="86" patternUnits="userSpaceOnUse">
      <path d="M-18 32c50-23 93 4 141-6 38-8 62-34 103-19" fill="none" stroke="#f1d19c" stroke-opacity="0.13" stroke-width="5"/>
      <path d="M0 66c66-22 105 10 169-15 23-9 43-9 65 2" fill="none" stroke="#170c07" stroke-opacity="0.22" stroke-width="4"/>
    </pattern>
    <linearGradient id="panel" x1="0" y1="0" x2="1" y2="1">
      <stop offset="0" stop-color="#d79852"/>
      <stop offset="1" stop-color="#71401f"/>
    </linearGradient>
  </defs>
  <rect width="1600" height="900" fill="url(#bg)"/>
  <rect width="1600" height="900" fill="url(#grain)" opacity="0.88"/>
  <circle cx="1190" cy="190" r="430" fill="#ffe0a3" opacity="0.17"/>
  <g transform="translate(950 95) rotate(7)">
    <rect x="0" y="0" width="410" height="670" rx="20" fill="#2b170c" opacity="0.45"/>
    <rect x="28" y="24" width="354" height="620" rx="16" fill="url(#panel)"/>
    <rect x="62" y="60" width="286" height="552" rx="140" fill="none" stroke="#f4cc8f" stroke-width="18" opacity="0.45"/>
    <rect x="94" y="94" width="222" height="486" rx="112" fill="none" stroke="#3a1d0d" stroke-width="10" opacity="0.45"/>
    <path d="M204 145c-68 74-97 150-87 229 10 78 51 138 124 181-32-72-29-140 8-203 29-49 34-106-45-207Z" fill="#3a1e0f" opacity="0.58"/>
    <path d="M205 155c25 83 15 150-31 201-34 38-48 84-43 138" fill="none" stroke="#f5d08e" stroke-width="12" stroke-linecap="round" opacity="0.55"/>
    <path d="M205 155c-26 74-20 137 17 188 33 45 42 93 27 143" fill="none" stroke="#160b06" stroke-width="7" stroke-linecap="round" opacity="0.42"/>
    <g fill="#f0be74" opacity="0.5">
      <circle cx="126" cy="159" r="12"/>
      <circle cx="287" cy="159" r="12"/>
      <circle cx="126" cy="513" r="12"/>
      <circle cx="287" cy="513" r="12"/>
    </g>
  </g>
  <g transform="translate(110 196)" opacity="0.78">
    <path d="M0 385c110-96 213-120 309-71 84 42 157 19 221-70" fill="none" stroke="#f7dba8" stroke-width="22" stroke-linecap="round"/>
    <path d="M39 455c92-65 182-74 270-28 72 38 142 22 210-48" fill="none" stroke="#b86c35" stroke-width="15" stroke-linecap="round"/>
    <path d="M18 310c100-69 200-81 299-35 82 38 158 21 228-51" fill="none" stroke="#2b160a" stroke-width="10" stroke-linecap="round" opacity="0.45"/>
  </g>
</svg>
