<svg xmlns="http://www.w3.org/2000/svg" viewBox="0 0 1600 900" role="img" aria-label="Warm wooden furniture workshop and carved detail">
  <defs>
    <linearGradient id="bg" x1="0" y1="0" x2="1" y2="1">
      <stop offset="0" stop-color="#24160d"/>
      <stop offset="0.52" stop-color="#73451f"/>
      <stop offset="1" stop-color="#f0c783"/>
    </linearGradient>
    <pattern id="grain" width="260" height="90" patternUnits="userSpaceOnUse">
      <path d="M-28 22c89-35 143 33 231-8 40-19 69-17 104 2" fill="none" stroke="#ffdfaa" stroke-opacity="0.12" stroke-width="6"/>
      <path d="M-7 72c74-24 125 19 193-2 42-13 65-39 115-18" fill="none" stroke="#160b06" stroke-opacity="0.2" stroke-width="4"/>
    </pattern>
    <linearGradient id="table" x1="0" y1="0" x2="1" y2="1">
      <stop offset="0" stop-color="#f1b86f"/>
      <stop offset="1" stop-color="#653819"/>
    </linearGradient>
  </defs>
  <rect width="1600" height="900" fill="url(#bg)"/>
  <rect width="1600" height="900" fill="url(#grain)" opacity="0.86"/>
  <ellipse cx="1130" cy="635" rx="480" ry="105" fill="#100806" opacity="0.24"/>
  <g transform="translate(710 250)">
    <path d="M56 310h650l-45 184H18Z" fill="#211109" opacity="0.52"/>
    <path d="M78 274h616c42 0 68 37 50 72l-46 92H43l-34-76c-18-40 19-88 69-88Z" fill="url(#table)"/>
    <path d="M78 318c96-36 171 24 269 0 95-23 159-78 276-22 39 19 77 22 116 8" fill="none" stroke="#ffe0a8" stroke-width="18" stroke-linecap="round" opacity="0.45"/>
    <path d="M67 388c93-24 156 16 247-3 100-21 172-64 288-22 47 17 92 17 134 0" fill="none" stroke="#2a1408" stroke-width="9" stroke-linecap="round" opacity="0.42"/>
    <path d="M138 438l-42 160h82l30-160Z" fill="#4d2812"/>
    <path d="M598 438l45 160h82l-64-160Z" fill="#4d2812"/>
  </g>
  <g transform="translate(910 124)">
    <circle cx="198" cy="198" r="170" fill="#2a150b" opacity="0.42"/>
    <circle cx="198" cy="198" r="145" fill="none" stroke="#e8ae63" stroke-width="26" opacity="0.72"/>
    <circle cx="198" cy="198" r="94" fill="none" stroke="#381c0e" stroke-width="14" opacity="0.5"/>
    <path d="M198 64c53 78 48 139-15 185-38 28-56 65-55 111" fill="none" stroke="#f8d698" stroke-width="15" stroke-linecap="round" opacity="0.7"/>
    <path d="M196 70c-44 73-35 133 27 179 38 29 52 67 42 112" fill="none" stroke="#120805" stroke-width="8" stroke-linecap="round" opacity="0.48"/>
  </g>
  <g transform="translate(120 160)" fill="none" stroke-linecap="round">
    <path d="M0 410c92-48 177-47 255 3 66 42 132 42 198 0 65-42 125-39 180 9" stroke="#f5d9a6" stroke-width="17" opacity="0.62"/>
    <path d="M24 482c89-32 164-22 225 31 58 50 120 49 188-2 57-43 113-42 168 1" stroke="#aa6737" stroke-width="12" opacity="0.72"/>
    <path d="M8 345c94-35 173-22 237 38 54 51 119 54 195 8 70-42 135-39 195 10" stroke="#1d0f08" stroke-width="8" opacity="0.42"/>
  </g>
</svg>
